# xmcd
#
# Track frame offsets: 
#        150
#        20344
#        39632
#        58196
#        74489
#        92224
#        109046
#        128683
#        149706
#        170332
#        190781
#        210002
#        226384
#        249557
#        270301
#        288530
#        311608
#        327199
#
# Disc length: 4645 seconds
#
# Revision: 0
# Processed by: cddbd v1.5.2PL0 Copyright (c) Steve Scherf et al.
# Submitted via: ExactAudioCopy v0.99pb5
#
DISCID=05122312
DTITLE=Alanis Morissette - Ultimate Collection
DYEAR=1900
DGENRE=Pop
TTITLE0=Hands clean
TTITLE1=Thank U
TTITLE2=You oughta know
TTITLE3=Hand in my pocket
TTITLE4=You learn
TTITLE5=Ironic
TTITLE6=Head over feet
TTITLE7=All I really want
TTITLE8=Surrendering
TTITLE9=Man
TTITLE10=Front row
TTITLE11=Narcissus
TTITLE12=So unsexy
TTITLE13=Mary Jane
TTITLE14=Are You still mad
TTITLE15=Sympathetic character
TTITLE16=Things
TTITLE17=Utopia
EXTD=
EXTT0=
EXTT1=
EXTT2=
EXTT3=
EXTT4=
EXTT5=
EXTT6=
EXTT7=
EXTT8=
EXTT9=
EXTT10=
EXTT11=
EXTT12=
EXTT13=
EXTT14=
EXTT15=
EXTT16=
EXTT17=
PLAYORDER=
